<svg id="hibou_copy" data-name="hibou copy" xmlns="http://www.w3.org/2000/svg" viewBox="0 0 284.31 353.05">
  <defs>
    <style>
      .cls-1 {
        fill: #0f9797;
      }

      .cls-2 {
        fill: #6fc1c1;
      }

      .cls-3 {
        fill: #cfeaea;
      }

      .cls-4 {
        fill: #fff;
      }

      .cls-5 {
        fill: #f05825;
      }

      .cls-6 {
        fill: #ff9800;
      }

      .cls-7 {
        fill: #86353b;
      }

      .cls-8 {
        fill: #231f20;
      }
    </style>
  </defs>
  <g>
    <path class="cls-1" d="M426,428.8c47.73-12.67,72.41-50.65,80.65-72.37,6.52-17.23,10.7-46.14-8.24-66.06s-40.32-10.87-51-11.76H356.86c-10.69.89-32.11-8.16-51,11.76s-14.74,48.83-8.23,66.06c8.23,21.72,32.92,59.7,80.69,72.37Z" transform="translate(-264.64 -99.07)"/>
    <path class="cls-2" d="M322.44,313.15c-.85,28.71-6.36,70.82,57.61,110.39,13.18,8.17,31.28,10.87,47.74,0s61.82-52.31,53.51-101.36C467.79,242.62,323.81,265.08,322.44,313.15Z" transform="translate(-264.64 -99.07)"/>
    <path class="cls-3" d="M448.19,291.18c-9.6,0-85.09-2.15-94.7-2.15-8.62,0-13.88,47.78,1.44,91.83,5.67,16.25,22.21,40.49,30.86,49.5,0,0,33,0,28.7,2.14,6.25-3.11,13.58-19,24.38-35.85C467,352.79,461.47,291.18,448.19,291.18Z" transform="translate(-264.64 -99.07)"/>
    <g>
      <path class="cls-1" d="M538.17,127.52c-5.84-3.43-17.12-1.84-38.16-1.62-24.95-16.7-57.53-26.83-93.21-26.83s-68.24,10.13-93.2,26.83c-18.81-2.82-39.91-4.26-42.46-2-3.32,3-2.26,28,5.2,41.08a88.17,88.17,0,0,0-11.7,43.5c0,60.44,63.65,109.43,142.16,109.43S549,268.91,549,208.47A88.27,88.27,0,0,0,537.27,165C543.36,151.18,541.79,129.64,538.17,127.52Z" transform="translate(-264.64 -99.07)"/>
      <path class="cls-4" d="M472.47,145.23a66.77,66.77,0,0,0-65.67,54.83,66.82,66.82,0,1,0,0,23.94,66.78,66.78,0,1,0,65.67-78.77Z" transform="translate(-264.64 -99.07)"/>
      <g>
        <path class="cls-5" d="M390.54,286.39c.56,5.92,5.2,12.62,16.19,12.62s17.36-6.7,16.2-12.62S394,277.67,390.54,286.39Z" transform="translate(-264.64 -99.07)"/>
        <path class="cls-6" d="M406.73,264.62c5.22,0,11.58,6.71,16.2,21.77-5.19-.81-9.83,5.13-16.2,18.55-6.37-13.42-11-19.36-16.19-18.55C395.17,271.33,401.53,264.62,406.73,264.62Z" transform="translate(-264.64 -99.07)"/>
      </g>
      <g>
        <g>
          <path class="cls-7" d="M391.46,211a50.35,50.35,0,1,1-50.32-50.33A50.35,50.35,0,0,1,391.46,211Z" transform="translate(-264.64 -99.07)"/>
          <path class="cls-8" d="M387.1,211.55c-.52,25.71-19.73,47.85-46.34,47.3-25.22-.49-44.12-22.93-45.58-47-1.59-26.24,20.13-49.29,46.31-48.78s45.13,24.25,45.61,49c0,2.67,8.77,1,8.7-2.33-.59-29.94-25.52-52.14-55-51.55-29.09.59-53.72,24.09-54.32,53.3-.62,30.22,25.94,52.73,55.05,52.16s53.75-24.1,54.31-53.31C395.87,206.87,387.15,208.74,387.1,211.55Z" transform="translate(-264.64 -99.07)"/>
        </g>
        <path class="cls-8" d="M374.28,211a33.16,33.16,0,1,1-33.14-33.15A33.15,33.15,0,0,1,374.28,211Z" transform="translate(-264.64 -99.07)"/>
        <path class="cls-4" d="M330.32,231.3c0,4.62-6.27,8.34-14,8.34s-14-3.72-14-8.34,6.29-8.32,14-8.32S330.32,226.73,330.32,231.3Z" transform="translate(-264.64 -99.07)"/>
        <path class="cls-4" d="M378.4,190.27c0,9-8.09,16.32-18,16.32s-18-7.33-18-16.32,8-16.36,18-16.36S378.4,181.25,378.4,190.27Z" transform="translate(-264.64 -99.07)"/>
      </g>
      <g>
        <g>
          <path class="cls-7" d="M524.46,211a50.35,50.35,0,1,1-50.32-50.33A50.35,50.35,0,0,1,524.46,211Z" transform="translate(-264.64 -99.07)"/>
          <path class="cls-8" d="M520.11,211.55c-.51,25.71-19.74,47.85-46.35,47.3-25.21-.49-44.11-22.93-45.58-47-1.6-26.24,20.15-49.29,46.31-48.78s45.11,24.25,45.62,49c.06,2.67,8.78,1,8.72-2.33-.62-29.94-25.54-52.14-55.07-51.55-29.08.59-53.74,24.09-54.31,53.3-.62,30.22,25.93,52.73,55,52.16s53.75-24.1,54.33-53.31C528.89,206.87,520.17,208.74,520.11,211.55Z" transform="translate(-264.64 -99.07)"/>
        </g>
        <path class="cls-8" d="M507.27,211a33.16,33.16,0,1,1-33.13-33.15A33.15,33.15,0,0,1,507.27,211Z" transform="translate(-264.64 -99.07)"/>
        <path class="cls-4" d="M463.34,231.3c0,4.62-6.3,8.34-14,8.34s-14-3.72-14-8.34,6.28-8.32,14-8.32S463.34,226.73,463.34,231.3Z" transform="translate(-264.64 -99.07)"/>
        <path class="cls-4" d="M511.42,190.27c0,9-8.08,16.32-18.05,16.32s-18-7.33-18-16.32,8.07-16.36,18-16.36S511.42,181.25,511.42,190.27Z" transform="translate(-264.64 -99.07)"/>
      </g>
    </g>
    <g>
      <path class="cls-6" d="M394.16,401.42c-6.17-5.11-15-4.7-19.82,2.36-3-6.43-8.38-7.9-14.94-5.74a14.38,14.38,0,0,0-5.37,3.37,26.88,26.88,0,0,0-9.52-2.19c-13.89-.23-20.49,18-18.72,29.71,2,13.24,14.87,25.35,24.21,19.38.83-.52,4,4.39,12.29,3.75,7.94-.57,12.32-.83,14.36-8.58,5.84,12,20.13,6.66,21.75-4.72,1.27-8.93,3.8-30.6-4.24-37.34" transform="translate(-264.64 -99.07)"/>
      <path class="cls-6" d="M475,409.06c-6-12.31-18.27-9.3-21.43-7.16,0,0-17-11.19-23.18,1.88-4.75-7.06-13.68-7.47-19.83-2.36-5.18,4.35-4.83,16-5,22-.2,7.16-1.22,20,5.2,25,5.59,4.35,14.48.94,17.31-4.86,2,7.75,5.15,9.31,13,8a14.7,14.7,0,0,0,8.6-4.47,15.23,15.23,0,0,0,12.86,1.39c17.28-5.55,19.56-25.08,12.43-39.33" transform="translate(-264.64 -99.07)"/>
    </g>
  </g>
</svg>
